<svg xmlns="http://www.w3.org/2000/svg" viewBox="0 0 256 256" role="img" aria-labelledby="title description">
  <title id="title">TraceWhy mark</title>
  <desc id="description">Two execution traces converge into a highlighted evidence point.</desc>
  <defs>
    <linearGradient id="surface" x1="32" y1="24" x2="224" y2="232" gradientUnits="userSpaceOnUse">
      <stop stop-color="#161b23"/>
      <stop offset="1" stop-color="#0a0d12"/>
    </linearGradient>
    <linearGradient id="trace" x1="50" y1="69" x2="192" y2="188" gradientUnits="userSpaceOnUse">
      <stop stop-color="#72e5a5"/>
      <stop offset="0.48" stop-color="#a7b0be"/>
      <stop offset="1" stop-color="#ff654f"/>
    </linearGradient>
    <filter id="glow" x="-80%" y="-80%" width="260%" height="260%">
      <feGaussianBlur stdDeviation="7"/>
    </filter>
  </defs>
  <rect x="8" y="8" width="240" height="240" rx="54" fill="url(#surface)" stroke="#2b3340" stroke-width="4"/>
  <path d="M52 69h50c23 0 42 19 42 42v7c0 19 15 34 34 34h25" fill="none" stroke="url(#trace)" stroke-width="13" stroke-linecap="round"/>
  <path d="M52 187h39c29 0 53-24 53-53v-11" fill="none" stroke="#657080" stroke-width="13" stroke-linecap="round"/>
  <circle cx="52" cy="69" r="12" fill="#72e5a5"/>
  <circle cx="52" cy="187" r="12" fill="#8a94a3"/>
  <circle cx="204" cy="152" r="24" fill="#ff654f" opacity=".2" filter="url(#glow)"/>
  <circle cx="204" cy="152" r="12" fill="#ff654f"/>
  <path d="M204 174v21" stroke="#ff654f" stroke-width="11" stroke-linecap="round"/>
  <circle cx="204" cy="216" r="7" fill="#ff654f"/>
</svg>
